<svg xmlns="http://www.w3.org/2000/svg" viewBox="0 0 345.051 149.28"><defs><style>.cls-1{fill:#6ec288;}.cls-2{fill:#f0c21d;}.cls-3{fill:#8c1c46;}.cls-4{fill:#ec8223;}.cls-5{fill:#d43e78;}</style></defs><g id="Layer_2" data-name="Layer 2"><g id="Layer_1-2" data-name="Layer 1"><path class="cls-1" d="M45.144,35.309l-32.763-13,5.606,28.821ZM61.52,149.28l7.725-.016,1.569-7.918-16.5-4.2ZM14.882,119.225l39.436,17.923,2.494-24.378ZM121.707,67.312,105.278,85.13l44.007,5.67V87.154ZM84.717,44.974l8.276,32.559,14.915-43.36ZM71.613,0H66.485L78.179,19.888l16.6-10.771Zm77.672,9.568V0H125.552l15.972,24.976ZM106.247,149.28h12.61l12.588-12.662-32.181-10.73Z"></path><path class="cls-2" d="M36.056,12.07,12.381,22.305l32.763,13ZM.005,65.737V89.451l28.01-14.217Zm23.387,77.1,30.926-5.688L14.882,119.225ZM105.278,85.13l16.194,18.144,27.813-9.557V90.8ZM58,88.024,56.812,112.77,87.27,98.489Zm26.722-43.05,23.191-10.8L94.774,9.117Zm23.191-10.8-2.63,50.957,16.429-17.818ZM70.814,141.346l17.2,7.934h18.234l-6.983-23.392ZM.005,5.549V27.108l12.376-4.8Z"></path><path class="cls-3" d="M69.245,149.264l18.768.016-17.2-7.934Zm-27.516-41.1,6.852-48.314L28.015,75.234ZM0,60.534l.005,2.732,48.576-3.411L17.987,51.126Zm99.264,65.354,6.014-40.758L87.27,98.489ZM84.717,44.974,78.179,19.888,45.144,35.309ZM94.774,9.117l13.134,25.056,33.616-9.2Zm36.671,127.5,13.564,12.662h4.276V132.333ZM13.02,149.28H26.131l-2.739-6.444ZM55.287,0H32.368l3.688,12.07Z"></path><path class="cls-4" d="M86.378,86.287,58,88.024,87.27,98.489,105.278,85.13Zm12.886,39.6,32.181,10.73-9.973-33.344ZM92.993,77.533l12.285,7.6,2.63-50.957ZM94.774,9.117,78.179,19.888l6.538,25.086ZM56.812,112.77,58,88.024,41.729,108.169ZM48.581,59.855,45.144,35.309,17.987,51.126Zm100.7-50.287-7.761,15.408,7.761,17.96ZM.005,114.917l14.877,4.308L.005,97.705ZM.5,149.28H13.02l10.372-6.444-8.51-23.611ZM32.368,0H29.544L12.381,22.305,36.056,12.07Z"></path><path class="cls-5" d="M56.812,112.77l-15.083-4.6L14.882,119.225Zm-15.083-4.6L58,88.024,48.581,59.855ZM.005,65.737l28.01,9.5L48.581,59.855.005,63.266Zm121.467,37.537L105.278,85.13l-6.014,40.758ZM58,88.024l47.283-2.894-12.285-7.6Zm63.712-20.712,27.578,19.842V59.137ZM125.552,0h-8.189L94.774,9.117l46.75,15.859ZM45.144,35.309l3.437,24.546L84.717,44.974Zm25.67,106.037-14-28.576-2.494,24.378Zm48.043,7.934h26.152l-13.564-12.662Zm-118.852,0H.5l14.383-30.055L.005,114.917ZM29.544,0H.005V5.549L12.381,22.305Zm56.3,0H71.613L94.774,9.117Z"></path><path d="M300.162,72.941a5.183,5.183,0,0,0,5.3-5.231v-.029a5.29,5.29,0,0,0-10.579.029v.029A5.134,5.134,0,0,0,300.162,72.941Zm-3.411-5.26a3.418,3.418,0,0,1,3.411-3.57,3.467,3.467,0,0,1,3.439,3.6v.029a3.418,3.418,0,0,1-3.41,3.569,3.465,3.465,0,0,1-3.44-3.6Zm-8.267,5.087V64.3h3.209V62.652h-8.209V64.3h3.208v8.469ZM252.165,67.71v-.029a5.042,5.042,0,0,0-5.376-5.029h-3.773V72.768h3.773A5.065,5.065,0,0,0,252.165,67.71Zm-1.865.029a3.3,3.3,0,0,1-3.511,3.41h-1.995V64.27h1.995a3.32,3.32,0,0,1,3.511,3.44Zm16.751-.029v-.029a5.29,5.29,0,0,0-10.579.029v.029a5.29,5.29,0,0,0,10.579-.029Zm-8.715,0v-.029a3.419,3.419,0,0,1,3.411-3.57,3.466,3.466,0,0,1,3.439,3.6v.029a3.418,3.418,0,0,1-3.41,3.569A3.466,3.466,0,0,1,258.336,67.71Zm12.443.029a5.088,5.088,0,0,0,5.145,5.2,5.215,5.215,0,0,0,4.105-1.792l-1.141-1.156a3.969,3.969,0,0,1-2.906,1.315,3.42,3.42,0,0,1-3.337-3.6v-.029a3.4,3.4,0,0,1,3.337-3.57,4.025,4.025,0,0,1,2.833,1.258l1.142-1.315A5.275,5.275,0,0,0,276,62.478a5.121,5.121,0,0,0-5.219,5.232Zm-57.207-.029v-.029a5.29,5.29,0,0,0-10.579.029v.029a5.29,5.29,0,0,0,10.579-.029Zm-8.715,0v-.029a3.419,3.419,0,0,1,3.411-3.57,3.466,3.466,0,0,1,3.439,3.6v.029a3.418,3.418,0,0,1-3.41,3.569A3.466,3.466,0,0,1,204.857,67.71Zm131.855-5.058V72.768h7.1V71.149H338.49v-8.5ZM221.84,71.337a4.659,4.659,0,0,1-3.193-1.315l-1.069,1.272a6.229,6.229,0,0,0,4.22,1.618c2.123,0,3.613-1.127,3.613-3.02v-.029c0-1.676-1.114-2.442-3.253-2.962-1.936-.463-2.4-.81-2.4-1.59v-.029c0-.665.607-1.2,1.648-1.2a4.594,4.594,0,0,1,2.746,1.04l.953-1.344a5.6,5.6,0,0,0-3.67-1.272c-2.008,0-3.454,1.2-3.454,2.934v.029c0,1.864,1.214,2.5,3.367,3.02,1.879.434,2.283.824,2.283,1.546v.029C223.632,70.831,222.939,71.337,221.84,71.337Zm96.647-5.462v-.029a3.059,3.059,0,0,0-.838-2.183,4.08,4.08,0,0,0-2.919-1.011h-4.51V72.768H312V69.242h2.226l2.485,3.526h2.1l-2.731-3.83A3.034,3.034,0,0,0,318.487,65.875Zm-1.806.1c0,1.026-.81,1.691-2.082,1.691H312v-3.4h2.587c1.315,0,2.1.593,2.1,1.677ZM229.749,64.3h3.208v8.469h1.792V64.3h3.208V62.652h-8.208ZM329.76,70.325l1.027,2.443h1.879L328.214,62.58h-1.647l-4.451,10.188h1.821l1.04-2.443Zm-2.4-5.621,1.749,4.047h-3.484Zm-134.4,4.813h2.008c2.225,0,4.046-1.186,4.046-3.454v-.029c0-2.038-1.487-3.382-3.844-3.382h-3.989V72.768h1.779Zm0-5.247h2.066c1.329,0,2.183.622,2.183,1.807v.029c0,1.055-.838,1.806-2.183,1.806h-2.066Zm78.81-25.854H251.31V6.424H239.6V48.677h32.173Zm46.115-2.534h5.13l8.511,12.8h13.522L334.97,33.951c5.252-2.234,8.693-6.519,8.693-12.978v-.121c0-4.165-1.268-7.425-3.743-9.839-2.836-2.9-7.3-4.588-13.762-4.588h-19.98V48.679h11.71Zm0-19.316h7.666c3.924,0,6.338,1.69,6.338,5.01V21.7c0,3.078-2.294,5.01-6.278,5.01h-7.726ZM211.05,49.522c9.357,0,14.729-4.044,18.713-9.537l-8.813-6.278c-2.535,3.079-5.131,5.131-9.537,5.131-5.916,0-10.081-4.95-10.081-11.288v-.121c0-6.157,4.166-11.167,10.081-11.167,4.044,0,6.821,1.932,9.236,4.95l8.812-6.821c-3.742-5.191-9.3-8.813-17.927-8.813-12.8,0-22.274,9.658-22.274,21.972v.12A21.456,21.456,0,0,0,211.05,49.522Zm82.573-43.1h-11.77V48.678h11.771Zm50.186,80.29H191.185v2.047H343.809Zm-15.717,16h-3.236v17.026h3.236ZM317.07,109.6h-7.542v-6.884h-3.235v17.026h3.235v-7.077h7.542v7.077H320.3V102.718H317.07ZM233.4,102.718v17.026h10.118v-2.87h-6.883V102.718Zm74.493,24.828-6.057,17.027h3.332l1.167-3.357h7.079l1.191,3.357h3.429l-6.08-17.027Zm-.609,10.775,2.5-7.175h.2l2.5,7.175Zm-13.741-31.055c0-1.07.875-1.969,2.675-1.969,1.824,0,2.821.948,2.846,2.359H302.3c-.1-3.552-2.846-5.254-6.081-5.254-3.746,0-5.887,2.213-5.887,4.913,0,6.957,9.049,3.818,9.049,7.711,0,1.288-1.168,2.067-2.992,2.067-2.141,0-3.405-1.191-3.429-2.724h-3.138c0,3.381,2.578,5.692,6.47,5.692,4.086,0,6.422-2.262,6.422-5.279C302.714,107.9,293.544,110.818,293.544,107.266Zm41.412,32.928h-.146l-5.229-12.648h-3.916v17.027h3.113v-10.9h.146l4.5,10.9h2.821l4.087-10.63h.146v10.63h3.113V127.546h-3.916Zm4.135-37.476h-6.446v17.026h3.236v-5.959h3.21a5.522,5.522,0,0,0,5.692-5.57A5.378,5.378,0,0,0,339.091,102.718Zm-.34,8.294h-2.87v-5.521h2.87a2.578,2.578,0,0,1,2.723,2.724A2.623,2.623,0,0,1,338.751,111.012Zm-137.132-5.5v-2.8H191.185v17.026h3.235v-6.907h6.567v-2.773H194.42v-4.549Zm21.27-2.8h-3.236v17.026h10.119v-2.87h-6.883Zm.661,30.252c0-3.21-2.383-5.424-5.862-5.424h-6.372v17.027h3.234v-6.082H217.3l3.187,6.082h3.624l-3.747-6.641A5.353,5.353,0,0,0,223.55,132.97Zm-6.1,2.749h-2.9v-5.4H217.4a2.7,2.7,0,1,1,.05,5.4Zm-1.471-18.771h-7.442V112.52h6.154v-2.773h-6.154v-4.232h7.2v-2.8H205.3v17.026h10.678Zm-18.344,10.6h-6.446v17.027h3.235v-5.96h3.211a5.521,5.521,0,0,0,5.691-5.57A5.379,5.379,0,0,0,197.631,127.546Zm-.34,8.294H194.42v-5.521h2.871a2.578,2.578,0,0,1,2.723,2.724A2.623,2.623,0,0,1,197.291,135.84Zm65.815-24.608a8.977,8.977,0,1,0-9,8.829A8.727,8.727,0,0,0,263.106,111.232Zm-8.976,5.739a5.742,5.742,0,1,1,5.6-5.739A5.488,5.488,0,0,1,254.13,116.971Zm-14,10.259a8.831,8.831,0,1,0,8.976,8.83A8.7,8.7,0,0,0,240.131,127.23Zm0,14.57a5.742,5.742,0,1,1,5.594-5.74A5.49,5.49,0,0,1,240.131,141.8Zm47.813-39.082h-3.5l-2.822,12.235h-.17l-2.967-12.235h-3.99l-2.967,12.235h-.194l-2.8-12.235h-3.527l4.4,17.026H273.3l3.09-12.453h.17l3.089,12.453h3.892Zm-22.793,35.361h5.4c-.243,2.164-2.311,3.794-5.084,3.794a5.781,5.781,0,0,1-.024-11.554,4.855,4.855,0,0,1,4.743,2.919h3.552a8.22,8.22,0,0,0-8.3-6.008,8.83,8.83,0,1,0,.024,17.659c5.108,0,8.83-3.454,8.685-9.486h-9Zm29.543-5.109c0-3.21-2.383-5.424-5.862-5.424H282.46v17.027h3.234v-6.082h2.749l3.187,6.082h3.624l-3.747-6.641A5.353,5.353,0,0,0,294.694,132.97Zm-6.105,2.749h-2.895v-5.4h2.846a2.7,2.7,0,1,1,.049,5.4Z"></path></g></g></svg>